<svg viewBox="0 0 1024 1024" xmlns="http://www.w3.org/2000/svg" width="32" height="32"><defs><style/></defs><path d="M516.032 66.496A447.488 447.488 0 0069.056 513.472c0 246.528 200.512 446.976 446.976 446.976s446.976-200.512 446.976-446.976A447.488 447.488 0 00516.032 66.496zm0 830.016c-211.2 0-382.976-171.84-382.976-382.976S304.896 130.56 516.032 130.56 899.008 302.4 899.008 513.536s-171.84 382.976-382.976 382.976z" fill="#F66E18"/><path d="M700.032 481.472h-152v-152a32 32 0 00-64 0v152h-152a32 32 0 000 64h152v152a32 32 0 0064 0v-152h152a32 32 0 000-64z" fill="#F66E18"/></svg>